<mxfile host="app.diagrams.net" modified="2024-02-24T05:00:16.468Z" agent="Mozilla/5.0 (Windows NT 10.0; Win64; x64) AppleWebKit/537.36 (KHTML, like Gecko) Chrome/121.0.0.0 Safari/537.36" etag="zNUTZCi7RYu0hYZATRn0" version="23.1.5" type="device">
  <diagram name="Page-1" id="83t2BkHLnPl_0o1Em_CM">
    <mxGraphModel dx="2284" dy="772" grid="1" gridSize="10" guides="1" tooltips="1" connect="1" arrows="1" fold="1" page="1" pageScale="1" pageWidth="850" pageHeight="1100" math="0" shadow="0">
      <root>
        <mxCell id="0" />
        <mxCell id="1" parent="0" />
        <mxCell id="uXsn3BZFzpPRYqrBFTJ4-1" value="Passenger" style="swimlane;fontStyle=1;align=center;verticalAlign=top;childLayout=stackLayout;horizontal=1;startSize=26;horizontalStack=0;resizeParent=1;resizeParentMax=0;resizeLast=0;collapsible=1;marginBottom=0;whiteSpace=wrap;html=1;" vertex="1" parent="1">
          <mxGeometry x="790" y="470" width="160" height="200" as="geometry" />
        </mxCell>
        <mxCell id="uXsn3BZFzpPRYqrBFTJ4-2" value="# name:string&lt;br&gt;# email: string&lt;br&gt;# password: string" style="text;strokeColor=none;fillColor=none;align=left;verticalAlign=top;spacingLeft=4;spacingRight=4;overflow=hidden;rotatable=0;points=[[0,0.5],[1,0.5]];portConstraint=eastwest;whiteSpace=wrap;html=1;" vertex="1" parent="uXsn3BZFzpPRYqrBFTJ4-1">
          <mxGeometry y="26" width="160" height="54" as="geometry" />
        </mxCell>
        <mxCell id="uXsn3BZFzpPRYqrBFTJ4-3" value="" style="line;strokeWidth=1;fillColor=none;align=left;verticalAlign=middle;spacingTop=-1;spacingLeft=3;spacingRight=3;rotatable=0;labelPosition=right;points=[];portConstraint=eastwest;strokeColor=inherit;" vertex="1" parent="uXsn3BZFzpPRYqrBFTJ4-1">
          <mxGeometry y="80" width="160" height="8" as="geometry" />
        </mxCell>
        <mxCell id="uXsn3BZFzpPRYqrBFTJ4-4" value="+ get_name():string&lt;br&gt;+ set_name:(string)&lt;br&gt;+ get_email():string&lt;br&gt;+ set_email:(string)&lt;br&gt;+ get_password:()string&lt;br&gt;+ set_password:(string)" style="text;strokeColor=none;fillColor=none;align=left;verticalAlign=top;spacingLeft=4;spacingRight=4;overflow=hidden;rotatable=0;points=[[0,0.5],[1,0.5]];portConstraint=eastwest;whiteSpace=wrap;html=1;" vertex="1" parent="uXsn3BZFzpPRYqrBFTJ4-1">
          <mxGeometry y="88" width="160" height="112" as="geometry" />
        </mxCell>
        <mxCell id="uXsn3BZFzpPRYqrBFTJ4-5" value="Flight" style="swimlane;fontStyle=1;align=center;verticalAlign=top;childLayout=stackLayout;horizontal=1;startSize=26;horizontalStack=0;resizeParent=1;resizeParentMax=0;resizeLast=0;collapsible=1;marginBottom=0;whiteSpace=wrap;html=1;" vertex="1" parent="1">
          <mxGeometry x="-50" y="464" width="290" height="260" as="geometry" />
        </mxCell>
        <mxCell id="uXsn3BZFzpPRYqrBFTJ4-6" value="# flight_number:string&lt;br&gt;# departure_airport:string&lt;br&gt;# arrival_airport:string&lt;br&gt;# date: date&lt;br&gt;# time: time" style="text;strokeColor=none;fillColor=none;align=left;verticalAlign=top;spacingLeft=4;spacingRight=4;overflow=hidden;rotatable=0;points=[[0,0.5],[1,0.5]];portConstraint=eastwest;whiteSpace=wrap;html=1;" vertex="1" parent="uXsn3BZFzpPRYqrBFTJ4-5">
          <mxGeometry y="26" width="290" height="74" as="geometry" />
        </mxCell>
        <mxCell id="uXsn3BZFzpPRYqrBFTJ4-7" value="" style="line;strokeWidth=1;fillColor=none;align=left;verticalAlign=middle;spacingTop=-1;spacingLeft=3;spacingRight=3;rotatable=0;labelPosition=right;points=[];portConstraint=eastwest;strokeColor=inherit;" vertex="1" parent="uXsn3BZFzpPRYqrBFTJ4-5">
          <mxGeometry y="100" width="290" height="8" as="geometry" />
        </mxCell>
        <mxCell id="uXsn3BZFzpPRYqrBFTJ4-8" value="&lt;div&gt;+ get_flight_number(): String&lt;/div&gt;&lt;div&gt;+ set_flight_number(String)&lt;/div&gt;&lt;div&gt;+ get_departure_airport(): String&lt;/div&gt;&lt;div&gt;+ set_departure_airport(String)&lt;/div&gt;&lt;div&gt;+ get_arrival_airport(): String&lt;/div&gt;&lt;div&gt;+ set_arrival_airport(String)&lt;/div&gt;&lt;div&gt;+ get_date(): Date&lt;/div&gt;&lt;div&gt;+ set_date(Date)&lt;/div&gt;&lt;div&gt;+ get_time(): Time&lt;/div&gt;&lt;div&gt;+ set_time(Time)&lt;/div&gt;&lt;div&gt;&lt;br&gt;&lt;/div&gt;" style="text;strokeColor=none;fillColor=none;align=left;verticalAlign=top;spacingLeft=4;spacingRight=4;overflow=hidden;rotatable=0;points=[[0,0.5],[1,0.5]];portConstraint=eastwest;whiteSpace=wrap;html=1;" vertex="1" parent="uXsn3BZFzpPRYqrBFTJ4-5">
          <mxGeometry y="108" width="290" height="152" as="geometry" />
        </mxCell>
        <mxCell id="uXsn3BZFzpPRYqrBFTJ4-9" value="Seat" style="swimlane;fontStyle=1;align=center;verticalAlign=top;childLayout=stackLayout;horizontal=1;startSize=26;horizontalStack=0;resizeParent=1;resizeParentMax=0;resizeLast=0;collapsible=1;marginBottom=0;whiteSpace=wrap;html=1;" vertex="1" parent="1">
          <mxGeometry x="425" y="470" width="160" height="180" as="geometry" />
        </mxCell>
        <mxCell id="uXsn3BZFzpPRYqrBFTJ4-10" value="- seat_number:string&lt;br&gt;-class_type:string" style="text;strokeColor=none;fillColor=none;align=left;verticalAlign=top;spacingLeft=4;spacingRight=4;overflow=hidden;rotatable=0;points=[[0,0.5],[1,0.5]];portConstraint=eastwest;whiteSpace=wrap;html=1;" vertex="1" parent="uXsn3BZFzpPRYqrBFTJ4-9">
          <mxGeometry y="26" width="160" height="54" as="geometry" />
        </mxCell>
        <mxCell id="uXsn3BZFzpPRYqrBFTJ4-11" value="" style="line;strokeWidth=1;fillColor=none;align=left;verticalAlign=middle;spacingTop=-1;spacingLeft=3;spacingRight=3;rotatable=0;labelPosition=right;points=[];portConstraint=eastwest;strokeColor=inherit;" vertex="1" parent="uXsn3BZFzpPRYqrBFTJ4-9">
          <mxGeometry y="80" width="160" height="8" as="geometry" />
        </mxCell>
        <mxCell id="uXsn3BZFzpPRYqrBFTJ4-12" value="+ get_seat_number(): String&lt;br/&gt;+ set_seat_number(String)&lt;br/&gt;+ get_class_type(): String&lt;br/&gt;+ set_class_type(String)" style="text;strokeColor=none;fillColor=none;align=left;verticalAlign=top;spacingLeft=4;spacingRight=4;overflow=hidden;rotatable=0;points=[[0,0.5],[1,0.5]];portConstraint=eastwest;whiteSpace=wrap;html=1;" vertex="1" parent="uXsn3BZFzpPRYqrBFTJ4-9">
          <mxGeometry y="88" width="160" height="92" as="geometry" />
        </mxCell>
        <mxCell id="uXsn3BZFzpPRYqrBFTJ4-13" value="BoardingPass" style="swimlane;fontStyle=1;align=center;verticalAlign=top;childLayout=stackLayout;horizontal=1;startSize=26;horizontalStack=0;resizeParent=1;resizeParentMax=0;resizeLast=0;collapsible=1;marginBottom=0;whiteSpace=wrap;html=1;" vertex="1" parent="1">
          <mxGeometry x="740" y="790" width="240" height="390" as="geometry" />
        </mxCell>
        <mxCell id="uXsn3BZFzpPRYqrBFTJ4-14" value="- passenger: Passenger&lt;br&gt;- fight: Flight&lt;br&gt;- seat: Seat&lt;br&gt;- ticket_number:string&lt;br&gt;- gate:string&lt;br&gt;- boarding_time: time" style="text;strokeColor=none;fillColor=none;align=left;verticalAlign=top;spacingLeft=4;spacingRight=4;overflow=hidden;rotatable=0;points=[[0,0.5],[1,0.5]];portConstraint=eastwest;whiteSpace=wrap;html=1;" vertex="1" parent="uXsn3BZFzpPRYqrBFTJ4-13">
          <mxGeometry y="26" width="240" height="124" as="geometry" />
        </mxCell>
        <mxCell id="uXsn3BZFzpPRYqrBFTJ4-15" value="" style="line;strokeWidth=1;fillColor=none;align=left;verticalAlign=middle;spacingTop=-1;spacingLeft=3;spacingRight=3;rotatable=0;labelPosition=right;points=[];portConstraint=eastwest;strokeColor=inherit;" vertex="1" parent="uXsn3BZFzpPRYqrBFTJ4-13">
          <mxGeometry y="150" width="240" height="8" as="geometry" />
        </mxCell>
        <mxCell id="uXsn3BZFzpPRYqrBFTJ4-16" value="+ get_ticket_number(): String&lt;br&gt;+ set_ticket_number(String)&lt;br&gt;+ get_gate(): String&lt;br&gt;+ set_gate(String)&lt;br&gt;+ get_boarding_time(): Time&lt;br&gt;+ set_boarding_time(Time)&lt;br&gt;+ get_passenger(): Passenger&lt;br&gt;+ set_passenger(Passenger)&lt;br&gt;+ get_flight(): Flight&lt;br&gt;+ set_flight(Flight)&lt;br&gt;+ get_seat(): Seat&lt;br&gt;+ set_seat(Seat)&lt;br&gt;+display_boarding_pass()" style="text;strokeColor=none;fillColor=none;align=left;verticalAlign=top;spacingLeft=4;spacingRight=4;overflow=hidden;rotatable=0;points=[[0,0.5],[1,0.5]];portConstraint=eastwest;whiteSpace=wrap;html=1;" vertex="1" parent="uXsn3BZFzpPRYqrBFTJ4-13">
          <mxGeometry y="158" width="240" height="232" as="geometry" />
        </mxCell>
        <mxCell id="uXsn3BZFzpPRYqrBFTJ4-17" value="Domestic flight" style="swimlane;fontStyle=1;align=center;verticalAlign=top;childLayout=stackLayout;horizontal=1;startSize=26;horizontalStack=0;resizeParent=1;resizeParentMax=0;resizeLast=0;collapsible=1;marginBottom=0;whiteSpace=wrap;html=1;" vertex="1" parent="1">
          <mxGeometry x="-490" y="510" width="210" height="180" as="geometry" />
        </mxCell>
        <mxCell id="uXsn3BZFzpPRYqrBFTJ4-18" value="-&amp;nbsp;aircraft_type:string&lt;br&gt;- operation_airline:string" style="text;strokeColor=none;fillColor=none;align=left;verticalAlign=top;spacingLeft=4;spacingRight=4;overflow=hidden;rotatable=0;points=[[0,0.5],[1,0.5]];portConstraint=eastwest;whiteSpace=wrap;html=1;" vertex="1" parent="uXsn3BZFzpPRYqrBFTJ4-17">
          <mxGeometry y="26" width="210" height="64" as="geometry" />
        </mxCell>
        <mxCell id="uXsn3BZFzpPRYqrBFTJ4-19" value="" style="line;strokeWidth=1;fillColor=none;align=left;verticalAlign=middle;spacingTop=-1;spacingLeft=3;spacingRight=3;rotatable=0;labelPosition=right;points=[];portConstraint=eastwest;strokeColor=inherit;" vertex="1" parent="uXsn3BZFzpPRYqrBFTJ4-17">
          <mxGeometry y="90" width="210" height="8" as="geometry" />
        </mxCell>
        <mxCell id="uXsn3BZFzpPRYqrBFTJ4-20" value="+ get_aircraft_type(): String&lt;br/&gt;+ set_aircraft_type(String)&lt;br/&gt;+ get_operation_airline(): String&lt;br/&gt;+ set_operation_airline(String)" style="text;strokeColor=none;fillColor=none;align=left;verticalAlign=top;spacingLeft=4;spacingRight=4;overflow=hidden;rotatable=0;points=[[0,0.5],[1,0.5]];portConstraint=eastwest;whiteSpace=wrap;html=1;" vertex="1" parent="uXsn3BZFzpPRYqrBFTJ4-17">
          <mxGeometry y="98" width="210" height="82" as="geometry" />
        </mxCell>
        <mxCell id="uXsn3BZFzpPRYqrBFTJ4-21" value="" style="endArrow=block;endSize=16;endFill=0;html=1;rounded=0;entryX=0;entryY=0.5;entryDx=0;entryDy=0;exitX=1;exitY=0.5;exitDx=0;exitDy=0;" edge="1" parent="1" source="uXsn3BZFzpPRYqrBFTJ4-20" target="uXsn3BZFzpPRYqrBFTJ4-8">
          <mxGeometry width="160" relative="1" as="geometry">
            <mxPoint x="-280" y="620" as="sourcePoint" />
            <mxPoint x="-120" y="620" as="targetPoint" />
          </mxGeometry>
        </mxCell>
        <mxCell id="uXsn3BZFzpPRYqrBFTJ4-22" value="" style="endArrow=diamondThin;endFill=1;endSize=24;html=1;rounded=0;exitX=1;exitY=0.5;exitDx=0;exitDy=0;entryX=0;entryY=0.5;entryDx=0;entryDy=0;" edge="1" parent="1" source="uXsn3BZFzpPRYqrBFTJ4-6" target="uXsn3BZFzpPRYqrBFTJ4-10">
          <mxGeometry width="160" relative="1" as="geometry">
            <mxPoint x="390" y="490" as="sourcePoint" />
            <mxPoint x="550" y="490" as="targetPoint" />
          </mxGeometry>
        </mxCell>
        <mxCell id="uXsn3BZFzpPRYqrBFTJ4-23" value="" style="endArrow=diamondThin;endFill=0;endSize=24;html=1;rounded=0;exitX=0.5;exitY=0;exitDx=0;exitDy=0;entryX=0.5;entryY=0;entryDx=0;entryDy=0;" edge="1" parent="1" source="uXsn3BZFzpPRYqrBFTJ4-5" target="uXsn3BZFzpPRYqrBFTJ4-1">
          <mxGeometry width="160" relative="1" as="geometry">
            <mxPoint x="390" y="490" as="sourcePoint" />
            <mxPoint x="550" y="490" as="targetPoint" />
            <Array as="points">
              <mxPoint x="95" y="360" />
              <mxPoint x="870" y="360" />
            </Array>
          </mxGeometry>
        </mxCell>
        <mxCell id="uXsn3BZFzpPRYqrBFTJ4-24" value="1" style="text;html=1;align=center;verticalAlign=middle;whiteSpace=wrap;rounded=0;" vertex="1" parent="1">
          <mxGeometry x="40" y="440" width="60" height="30" as="geometry" />
        </mxCell>
        <mxCell id="uXsn3BZFzpPRYqrBFTJ4-25" value="*" style="text;html=1;align=center;verticalAlign=middle;whiteSpace=wrap;rounded=0;" vertex="1" parent="1">
          <mxGeometry x="860" y="440" width="60" height="30" as="geometry" />
        </mxCell>
        <mxCell id="uXsn3BZFzpPRYqrBFTJ4-26" value="1" style="text;html=1;align=center;verticalAlign=middle;whiteSpace=wrap;rounded=0;" vertex="1" parent="1">
          <mxGeometry x="220" y="500" width="60" height="30" as="geometry" />
        </mxCell>
        <mxCell id="uXsn3BZFzpPRYqrBFTJ4-27" value="*" style="text;html=1;align=center;verticalAlign=middle;whiteSpace=wrap;rounded=0;" vertex="1" parent="1">
          <mxGeometry x="365" y="500" width="60" height="30" as="geometry" />
        </mxCell>
        <mxCell id="uXsn3BZFzpPRYqrBFTJ4-29" value="" style="endArrow=none;html=1;rounded=0;exitX=0.533;exitY=0.003;exitDx=0;exitDy=0;exitPerimeter=0;" edge="1" parent="1" source="uXsn3BZFzpPRYqrBFTJ4-13">
          <mxGeometry width="50" height="50" relative="1" as="geometry">
            <mxPoint x="440" y="940" as="sourcePoint" />
            <mxPoint x="868" y="670" as="targetPoint" />
          </mxGeometry>
        </mxCell>
        <mxCell id="uXsn3BZFzpPRYqrBFTJ4-30" value="1" style="text;html=1;align=center;verticalAlign=middle;whiteSpace=wrap;rounded=0;" vertex="1" parent="1">
          <mxGeometry x="820" y="670" width="60" height="30" as="geometry" />
        </mxCell>
        <mxCell id="uXsn3BZFzpPRYqrBFTJ4-31" value="1" style="text;html=1;align=center;verticalAlign=middle;whiteSpace=wrap;rounded=0;" vertex="1" parent="1">
          <mxGeometry x="820" y="770" width="60" height="30" as="geometry" />
        </mxCell>
      </root>
    </mxGraphModel>
  </diagram>
</mxfile>
